# xmcd
#
# Track frame offsets:
#	150
#	15187
#	30083
#	45111
#
# Disc length: 801 seconds
#
# Revision: 0
# Processed by: cddbd v1.5.1PL0 Copyright (c) Steve Scherf et al.
# Submitted via: audiograbber 1.83.01
#
DISCID=12031f04
DTITLE=Triston Lee - Dreams Come True
DYEAR=2004
DGENRE=Country
TTITLE0=Who Goes There
TTITLE1=Patsy Proof
TTITLE2=Who Goes There Instr
TTITLE3=Patsy Proof Instr
EXTD=
EXTT0=
EXTT1=
EXTT2=
EXTT3=
PLAYORDER=
